<?xml version="1.0" standalone="no"?>
<!DOCTYPE svg PUBLIC "-//W3C//DTD SVG 20010904//EN"
 "http://www.w3.org/TR/2001/REC-SVG-20010904/DTD/svg10.dtd">
<svg version="1.0" xmlns="http://www.w3.org/2000/svg"
 width="1764.000000pt" height="1764.000000pt" viewBox="0 0 1764.000000 1764.000000"
 preserveAspectRatio="xMidYMid meet">
<metadata>
Created by potrace 1.11, written by Peter Selinger 2001-2013
</metadata>
<g transform="translate(0.000000,1764.000000) scale(0.100000,-0.100000)"
fill="#000000" stroke="none">
<path d="M3469 14366 c-2 -2 -89 -6 -194 -10 -187 -6 -222 -8 -340 -21 -166
-18 -510 -80 -565 -102 -8 -3 -24 -8 -35 -10 -39 -6 -161 -45 -284 -90 -446
-161 -823 -410 -1080 -713 -25 -30 -56 -66 -69 -80 -12 -14 -22 -28 -22 -32 0
-3 -6 -13 -13 -20 -18 -17 -89 -124 -113 -168 -10 -19 -21 -37 -24 -40 -11
-11 -100 -200 -100 -212 0 -8 -4 -18 -9 -23 -4 -6 -20 -44 -34 -85 -148 -438
-148 -965 1 -1368 65 -174 181 -351 314 -477 107 -102 129 -119 237 -191 89
-57 324 -183 354 -188 7 -1 21 -7 32 -13 93 -50 560 -198 845 -267 185 -44
366 -86 455 -105 55 -12 116 -26 135 -31 19 -6 63 -17 98 -24 77 -18 69 -16
84 -21 7 -2 51 -14 98 -25 221 -55 487 -161 620 -246 184 -118 282 -264 282
-422 0 -149 -55 -281 -163 -390 -65 -65 -135 -112 -236 -158 -43 -20 -85 -39
-94 -44 -22 -11 -254 -68 -304 -75 -82 -11 -203 -19 -280 -19 -83 0 -285 11
-320 18 -11 2 -45 7 -75 11 -139 17 -346 67 -519 124 -116 39 -333 126 -401
161 -19 10 -60 30 -90 45 -117 58 -289 158 -392 227 -32 21 -58 35 -58 31 0
-4 -4 -3 -8 4 -4 6 -30 27 -59 47 l-52 36 -86 -126 c-47 -70 -85 -131 -85
-135 0 -5 -4 -9 -10 -9 -5 0 -10 -6 -10 -14 0 -8 -3 -16 -7 -18 -11 -4 -113
-157 -113 -168 0 -6 -4 -10 -8 -10 -5 0 -15 -12 -23 -27 -8 -16 -16 -30 -19
-33 -3 -3 -56 -81 -118 -175 -61 -93 -115 -174 -120 -180 -26 -33 -72 -105
-72 -113 0 -6 -4 -12 -8 -14 -13 -5 -175 -251 -175 -265 0 -7 -3 -11 -5 -8 -3
3 -25 -25 -49 -62 -24 -36 -40 -70 -36 -74 15 -14 276 -147 402 -204 328 -150
665 -270 1024 -364 119 -31 137 -32 137 -5 0 8 8 14 18 14 26 0 39 36 35 95
-2 27 1 63 7 78 8 23 5 41 -15 90 -14 33 -25 66 -25 73 0 7 -14 24 -31 37 -28
22 -32 31 -36 88 -4 62 -4 65 24 81 15 9 30 16 33 16 3 1 31 26 63 56 32 31
66 56 75 57 9 0 36 2 58 5 36 4 43 1 58 -21 9 -14 13 -25 9 -25 -5 0 -2 -4 6
-9 16 -10 41 -4 41 10 0 23 84 119 104 120 11 0 34 3 49 5 20 3 43 -4 74 -23
l45 -28 -5 -69 c-3 -44 -10 -73 -19 -80 -25 -19 -48 -69 -63 -141 -19 -85 -22
-101 -30 -125 -3 -10 5 -47 19 -82 37 -96 39 -103 40 -108 1 -3 7 -15 14 -27
7 -13 10 -23 6 -23 -3 0 -1 -7 6 -15 7 -8 10 -15 6 -15 -3 0 3 -16 14 -35 11
-20 20 -42 20 -49 0 -17 35 -57 43 -49 4 3 11 -6 16 -20 13 -33 14 -33 101
-42 41 -4 89 -9 105 -10 37 -5 197 -16 290 -20 88 -5 480 -5 560 0 160 9 255
16 272 19 10 2 49 7 86 11 37 3 76 8 85 9 9 2 40 7 67 10 208 29 231 35 246
63 7 13 12 41 11 61 -7 138 -3 164 21 170 30 8 20 89 -15 127 -33 36 -34 50
-8 135 11 36 20 78 20 93 0 15 7 42 16 59 12 24 15 44 9 82 -14 96 -13 124 4
143 9 10 29 37 45 61 16 23 40 48 54 55 14 6 27 21 28 32 2 11 21 37 43 57 32
30 48 38 78 38 35 0 43 -6 105 -79 64 -75 66 -80 62 -122 -2 -24 -7 -55 -10
-68 -6 -28 -17 -122 -16 -136 1 -5 4 -21 7 -35 5 -18 0 -33 -15 -50 -18 -20
-20 -32 -14 -82 5 -44 4 -58 -6 -58 -8 0 -11 -3 -7 -6 3 -4 0 -19 -9 -35 -13
-25 -12 -35 2 -88 14 -49 15 -63 4 -76 -7 -8 -17 -12 -22 -9 -6 4 -8 -6 -5
-25 4 -21 -3 -47 -19 -79 -13 -26 -24 -61 -24 -79 l0 -31 117 35 c118 35 306
101 378 133 175 79 350 167 440 223 230 143 374 263 519 433 35 40 76 93 92
116 16 24 31 45 34 48 6 5 40 58 72 115 42 71 118 237 148 320 39 111 83 275
76 283 -3 3 -2 10 3 16 7 10 14 39 27 129 2 15 6 42 9 60 26 168 26 549 0 687
-44 234 -133 442 -264 615 -105 138 -176 207 -391 375 -14 11 -30 20 -37 20
-6 0 -13 4 -15 9 -5 14 -158 105 -283 168 -187 94 -493 209 -740 278 -33 9
-71 21 -85 25 -24 8 -224 57 -405 100 -185 43 -384 92 -519 126 -295 74 -541
171 -676 265 -34 24 -74 52 -89 61 -14 10 -23 18 -19 18 7 0 -3 13 -47 64 -37
43 -66 126 -70 201 -9 141 77 291 220 384 22 14 42 28 45 31 9 10 165 79 193
86 15 3 27 10 27 16 0 5 4 7 9 4 5 -4 21 -2 35 4 40 15 212 48 289 55 233 22
604 -20 846 -96 36 -11 75 -22 86 -25 119 -24 566 -237 657 -312 15 -13 27 1
120 144 99 152 263 405 358 554 25 39 100 155 166 258 67 103 149 230 182 282
34 52 66 101 72 107 8 10 -6 20 -56 43 -88 39 -388 152 -484 180 -41 13 -84
26 -95 31 -11 4 -40 13 -65 20 -25 6 -52 14 -60 17 -26 9 -30 10 -255 67 -121
30 -225 53 -232 50 -7 -2 -15 0 -17 4 -3 5 -23 11 -43 15 -77 12 -99 16 -143
26 -25 6 -88 17 -140 25 -52 8 -104 17 -115 19 -11 2 -47 7 -80 11 -32 4 -67
8 -75 10 -15 3 -42 6 -165 20 -130 15 -248 23 -435 31 -85 3 -158 8 -161 10
-3 2 -8 2 -10 0z"/>
<path d="M10001 14118 c-17 -33 -31 -67 -31 -74 0 -7 -3 -14 -7 -16 -5 -1 -18
-23 -30 -48 -120 -248 -200 -415 -247 -515 -31 -66 -61 -127 -67 -135 -5 -8
-12 -22 -15 -30 -4 -8 -41 -85 -82 -170 -41 -85 -107 -222 -147 -305 -40 -82
-110 -226 -155 -320 -45 -93 -104 -217 -131 -275 -28 -58 -54 -112 -59 -120
-6 -8 -14 -24 -19 -35 -5 -11 -46 -97 -91 -190 -45 -94 -111 -228 -145 -300
-34 -71 -100 -206 -145 -300 -148 -304 -241 -498 -300 -620 -32 -66 -108 -223
-170 -350 -145 -297 -174 -358 -174 -370 -1 -5 -7 -14 -13 -18 -7 -4 -13 -12
-13 -17 0 -5 -42 -96 -94 -202 -51 -106 -123 -254 -159 -328 -112 -234 -216
-449 -304 -630 -47 -96 -114 -233 -148 -305 -34 -71 -100 -206 -145 -300 -45
-93 -116 -240 -157 -325 -41 -85 -105 -218 -143 -295 l-68 -140 50 -3 c48 -3
53 -1 87 36 20 22 41 47 46 57 9 15 19 16 75 9 46 -6 65 -13 66 -24 1 -8 2
-23 3 -32 1 -22 21 -24 21 -3 0 8 5 15 10 15 6 0 10 7 10 15 0 7 7 18 16 23 9
5 16 13 15 18 -1 17 104 3 143 -19 11 -6 24 -10 29 -9 4 1 7 -2 7 -8 0 -6 6
-9 13 -8 7 2 13 -11 15 -35 l3 -37 875 2 875 3 39 75 c21 41 152 302 290 580
139 278 256 509 260 513 4 5 152 8 328 8 l321 0 47 67 c26 37 50 71 54 75 4 5
41 3 82 -3 97 -16 132 -43 126 -100 l-3 -39 1020 0 c561 0 1036 0 1055 -1 35
0 36 -2 82 -97 25 -54 58 -125 73 -158 15 -33 63 -134 106 -224 44 -90 79
-165 79 -167 0 -2 24 -54 54 -116 146 -305 174 -367 181 -387 4 -13 11 -18 18
-14 18 11 29 10 64 -7 22 -11 50 -14 94 -10 59 5 63 7 71 35 4 17 10 62 12
100 5 87 8 100 28 122 9 10 19 31 22 47 6 35 6 35 37 39 19 3 25 11 27 35 2
18 8 32 13 32 5 0 21 11 36 24 14 13 31 23 37 21 6 -1 23 -5 39 -8 15 -4 37
-9 50 -12 25 -5 79 -49 77 -62 -1 -4 -8 -23 -16 -41 -10 -25 -11 -39 -3 -54 7
-14 7 -23 -2 -34 -6 -8 -8 -14 -5 -14 4 0 3 -7 -2 -16 -6 -11 -5 -25 3 -41 7
-14 12 -30 10 -36 -1 -7 -6 -27 -10 -45 -4 -18 -12 -35 -16 -38 -5 -3 -5 -13
1 -23 5 -10 6 -21 3 -25 -3 -3 19 -6 49 -6 44 0 57 4 62 18 7 23 27 53 47 72
9 8 20 30 24 48 4 18 13 45 21 60 8 15 14 37 14 50 0 12 5 22 11 22 5 0 8 4 4
9 -3 5 1 15 8 23 7 7 19 27 26 45 7 18 22 35 32 38 11 4 19 16 19 30 0 14 7
25 20 28 11 3 23 13 27 24 8 21 53 72 53 60 0 -5 7 -1 16 8 12 12 33 15 78 14
73 -2 108 -16 158 -61 20 -18 49 -42 64 -53 43 -31 88 -69 97 -80 4 -5 6 -33
5 -61 l-1 -51 -69 -7 c-71 -6 -118 0 -118 15 0 5 -3 8 -7 7 -7 -1 -57 17 -73
27 -9 6 -90 -54 -90 -67 0 -5 -14 -21 -30 -35 -17 -13 -28 -29 -25 -33 3 -5 1
-11 -4 -14 -5 -3 -12 -17 -15 -31 -4 -14 -13 -33 -21 -43 -8 -9 -16 -21 -16
-27 0 -5 -5 -16 -11 -22 -8 -10 46 -13 266 -13 169 0 275 4 271 9 -3 5 -1 12
4 15 12 8 25 82 22 119 -2 16 5 37 14 47 9 10 18 24 19 32 2 7 6 20 9 28 4 8
18 60 31 114 14 55 33 111 43 125 10 14 27 43 38 65 11 21 31 51 45 66 14 15
24 34 22 43 -2 10 2 17 9 17 11 0 19 8 102 103 l42 48 61 -7 62 -6 -60 123
c-33 68 -80 169 -106 224 -25 55 -49 102 -54 103 -4 2 -8 9 -8 16 0 7 -34 84
-76 172 -125 263 -155 325 -197 414 -85 183 -117 251 -191 403 -42 87 -76 160
-76 162 0 1 -43 91 -95 200 -52 108 -95 198 -95 200 0 1 -31 67 -68 146 -67
140 -91 191 -194 409 -28 58 -72 150 -98 205 -26 55 -67 141 -90 190 -65 137
-122 258 -185 390 -31 66 -72 152 -90 190 -18 39 -58 122 -88 186 -31 64 -71
150 -90 190 -19 41 -63 133 -97 204 -34 72 -77 162 -95 200 -58 125 -121 257
-185 390 -35 72 -64 132 -65 135 -5 15 -30 69 -88 190 -195 408 -224 470 -282
595 -21 44 -66 140 -101 213 l-64 132 -1214 0 -1214 0 -31 -62z m1246 -2050
c5 -7 54 -119 108 -248 141 -340 155 -373 165 -395 5 -11 39 -92 75 -180 37
-88 73 -173 80 -190 7 -16 102 -241 210 -500 108 -258 212 -505 231 -549 19
-43 32 -81 29 -85 -4 -3 -418 -6 -922 -7 l-914 0 6 20 c4 12 7 29 8 38 1 9 4
15 8 12 3 -2 17 24 29 59 13 34 36 90 51 125 16 34 29 65 29 67 0 2 11 28 24
57 14 29 61 141 106 248 45 107 88 209 95 225 69 157 138 322 138 333 0 6 4
12 8 12 4 0 13 17 19 38 6 20 18 51 25 67 8 17 23 53 35 80 12 27 28 63 35 80
8 16 32 75 55 130 23 55 50 118 60 140 9 22 54 129 100 238 46 108 87 197 91
197 3 0 11 -6 16 -12z"/>
<path d="M10411 8571 c-37 -54 -59 -95 -55 -105 4 -10 -2 -17 -19 -21 -27 -7
-36 -38 -41 -140 -1 -27 -6 -61 -10 -74 -5 -15 -3 -32 5 -47 10 -20 10 -27 -6
-44 -10 -11 -21 -36 -24 -55 -3 -20 -10 -35 -15 -35 -5 1 -13 -6 -19 -15 -7
-13 -1 -27 23 -56 l32 -40 -21 -57 c-11 -31 -21 -83 -23 -114 -3 -48 1 -60 20
-81 13 -14 27 -41 32 -61 7 -30 5 -38 -11 -47 -10 -5 -34 -9 -51 -8 -57 2
-308 -71 -341 -99 -13 -12 -17 -27 -15 -56 3 -41 3 -41 43 -41 22 -1 48 -5 58
-9 12 -6 40 -3 75 8 78 22 181 44 185 39 9 -9 -6 -140 -19 -170 -8 -17 -14
-41 -14 -53 0 -12 -8 -34 -19 -48 -32 -47 -35 -69 -9 -83 33 -17 33 -17 12
-40 -19 -22 -24 -79 -9 -132 6 -22 3 -33 -15 -52 -18 -19 -21 -31 -16 -59 5
-26 2 -43 -11 -63 -12 -19 -18 -48 -19 -93 0 -36 -7 -93 -14 -127 -12 -52 -12
-64 0 -79 8 -9 13 -30 11 -46 -1 -16 5 -40 13 -53 11 -17 14 -37 11 -62 -4
-21 1 -71 10 -112 12 -59 13 -77 3 -89 -16 -19 -11 -55 14 -104 26 -49 39 -54
80 -33 18 10 71 37 118 60 47 23 96 54 109 69 14 15 36 26 50 26 14 0 40 14
58 29 61 56 225 279 246 334 4 11 15 21 25 24 9 2 27 25 40 51 12 26 38 71 57
101 19 29 45 86 59 126 l24 73 -23 22 c-30 28 -88 25 -94 -5 -2 -11 -10 -24
-18 -30 -9 -7 -12 -21 -9 -39 5 -30 -27 -89 -75 -137 -15 -14 -30 -39 -33 -56
-7 -30 -68 -111 -109 -143 -13 -10 -29 -37 -37 -60 -10 -31 -38 -65 -114 -136
-55 -52 -103 -94 -106 -94 -3 0 -13 6 -22 13 -11 8 -18 38 -22 102 -6 82 -9
92 -37 121 l-30 31 20 34 c28 45 27 67 -4 75 -32 8 -32 30 0 125 20 58 25 86
20 129 -11 108 -9 137 12 165 17 24 18 34 9 81 -8 44 -6 60 8 92 13 30 15 44
7 66 -16 41 -13 146 5 200 14 40 26 54 70 82 53 34 54 34 173 34 66 0 130 4
143 9 13 4 64 11 113 15 105 7 136 15 185 45 22 13 52 21 80 21 25 0 54 7 64
15 19 14 19 15 0 36 -33 36 -47 39 -145 24 -52 -7 -128 -16 -169 -20 -126 -10
-172 -16 -258 -31 -73 -14 -138 -13 -193 2 -25 7 -15 200 11 229 14 16 18 37
18 100 0 58 12 131 42 264 29 129 40 197 37 232 -4 40 -2 49 13 54 13 4 21 24
30 70 15 77 8 90 -49 99 -22 3 -46 8 -54 11 -9 4 -34 -23 -76 -84z"/>
<path d="M4448 8357 c-15 -12 -34 -38 -42 -58 -9 -22 -24 -39 -38 -43 -13 -3
-40 -31 -61 -62 -38 -55 -39 -56 -27 -105 12 -51 8 -124 -8 -156 -5 -10 -13
-38 -17 -63 -3 -25 -13 -66 -22 -93 -14 -46 -14 -48 11 -78 30 -35 40 -68 33
-104 -2 -14 0 -28 4 -31 19 -11 9 -44 -15 -50 -30 -7 -42 -48 -27 -87 16 -41
2 -106 -36 -175 l-35 -63 -52 2 c-58 3 -94 -15 -116 -57 -8 -14 -24 -31 -36
-37 -43 -24 -128 -104 -199 -189 -88 -105 -271 -415 -281 -473 -3 -22 -12 -47
-19 -55 -7 -8 -21 -42 -30 -75 -9 -33 -60 -165 -112 -294 l-95 -234 22 -41
c13 -22 26 -44 29 -48 10 -12 143 33 181 60 57 42 125 122 130 156 4 23 11 32
30 36 32 6 97 43 131 72 35 32 128 158 177 244 23 40 55 83 71 97 17 14 39 45
51 70 12 24 32 55 46 67 28 27 30 45 8 67 -14 14 -13 18 11 42 15 14 44 50 66
80 27 38 50 58 75 67 l36 12 18 -41 c27 -65 46 -193 30 -212 -16 -19 -30 -11
-23 15 7 24 -13 50 -38 50 -17 0 -17 -3 -5 -44 8 -24 35 -72 60 -105 26 -34
45 -65 42 -69 -5 -8 -15 -74 -18 -124 -2 -26 -10 -33 -31 -29 -14 2 -19 -29
-7 -44 9 -11 17 -12 31 -4 10 5 19 6 20 2 5 -62 13 -101 25 -114 17 -19 18
-35 1 -42 -10 -3 -12 -41 -11 -153 0 -82 4 -165 8 -184 4 -20 3 -47 -3 -62 -8
-21 -6 -36 5 -65 14 -31 14 -43 3 -76 -12 -36 -11 -41 6 -53 10 -8 24 -14 31
-14 19 0 39 68 40 140 0 36 4 95 8 131 5 42 4 81 -4 109 -8 30 -8 46 -1 53 17
17 13 62 -8 82 -20 17 -20 18 -1 44 25 35 31 159 13 276 -17 110 -29 142 -54
148 -28 7 -23 25 11 45 24 14 30 24 30 52 0 19 -9 49 -20 67 -16 27 -17 37 -8
65 6 18 20 40 31 49 20 17 20 17 -6 62 -29 48 -34 100 -18 170 6 23 5 39 -1
43 -5 3 -7 24 -4 45 3 22 9 69 12 104 4 36 13 70 20 76 8 6 14 24 14 39 0 22
-6 30 -30 39 -35 12 -37 24 -10 53 16 18 20 36 20 93 0 52 6 83 21 115 15 31
19 54 15 80 -5 32 -3 38 19 48 l24 11 -18 53 -18 53 24 48 c20 40 23 58 18 98
-5 40 -3 54 14 77 l20 28 -26 33 c-25 31 -25 32 -5 38 21 5 25 19 38 118 3 28
8 53 11 57 8 14 -102 148 -121 148 -6 0 -23 -10 -38 -23z m-430 -1583 c41 -8
24 -70 -46 -166 -66 -90 -112 -172 -112 -197 0 -31 -106 -216 -126 -220 -22
-4 -54 -30 -54 -43 0 -13 -91 -124 -99 -121 -3 1 -8 19 -12 40 -3 27 0 47 14
70 10 18 22 64 26 103 6 63 11 74 44 108 20 21 37 45 37 54 0 9 4 19 9 23 5 3
17 27 25 53 9 26 48 90 86 142 47 65 68 101 64 113 -3 10 2 27 11 37 17 18 59
20 133 4z"/>
<path d="M15304 8156 c3 -16 8 -31 11 -34 9 -10 5 33 -5 48 -8 11 -9 8 -6 -14z"/>
<path d="M15372 8122 c-54 -81 -92 -149 -86 -154 2 -3 7 -55 11 -115 6 -110 6
-111 -19 -127 -23 -15 -24 -20 -17 -68 8 -51 8 -52 -46 -132 -30 -45 -69 -99
-88 -120 -28 -33 -37 -38 -60 -32 -32 8 -36 35 -8 60 23 21 31 74 22 159 -6
58 -5 68 16 93 13 16 23 33 23 38 0 10 40 104 86 202 35 76 53 139 54 190 0
27 -4 33 -27 37 -25 5 -36 -3 -95 -65 -37 -39 -65 -75 -62 -79 2 -4 -6 -16
-20 -26 -42 -34 -116 -175 -136 -260 -16 -74 -44 -156 -60 -178 -4 -5 -10 -35
-14 -67 -3 -31 -13 -74 -22 -97 -9 -23 -14 -55 -11 -77 3 -20 1 -67 -4 -105
-9 -60 -7 -73 10 -107 11 -22 16 -44 12 -51 -5 -7 -2 -34 5 -59 8 -25 14 -56
14 -70 0 -14 9 -39 19 -56 11 -17 24 -50 30 -73 10 -36 19 -46 68 -73 62 -35
51 -35 212 -1 57 12 102 28 115 40 11 10 40 24 64 30 37 10 42 15 42 41 0 50
9 59 71 71 54 11 68 19 134 81 48 45 75 78 75 91 0 15 15 31 47 52 53 33 155
131 222 213 38 46 42 56 37 87 -13 67 -60 40 -157 -86 -36 -48 -87 -99 -127
-128 -79 -59 -88 -66 -127 -112 -39 -44 -93 -85 -125 -93 -51 -14 -120 -52
-125 -69 -15 -44 -131 -65 -181 -32 -12 8 -36 48 -53 89 -33 79 -38 106 -20
106 6 0 9 16 8 39 -4 49 42 109 103 137 24 10 76 47 115 81 40 35 77 63 83 63
15 0 80 61 95 90 11 21 26 30 70 40 32 8 59 20 62 27 3 7 34 29 69 49 35 19
66 43 69 53 6 20 49 61 102 97 42 28 66 58 87 108 9 21 16 40 16 41 0 2 -21
-3 -46 -11 -44 -13 -140 -74 -214 -136 -66 -55 -169 -126 -192 -133 -13 -4
-43 -24 -68 -44 -25 -21 -56 -43 -69 -50 -23 -13 -23 -12 -17 15 4 16 15 40
25 54 9 14 23 41 31 60 7 19 29 52 48 72 29 31 37 48 44 99 4 34 13 68 19 75
7 8 8 29 4 53 -5 32 -3 41 13 53 16 11 19 22 15 65 -6 56 -16 64 -97 83 -36 8
-37 7 -74 -48z"/>
<path d="M2155 8113 c-22 -5 -117 -132 -141 -189 -18 -43 -26 -38 -48 32 -9
28 -22 59 -29 68 -19 26 -65 11 -120 -39 -26 -24 -61 -52 -77 -62 -40 -23 -42
-72 -5 -101 15 -12 38 -55 60 -112 31 -82 34 -96 25 -132 -6 -21 -10 -63 -9
-92 3 -62 -15 -113 -42 -121 -11 -4 -24 -23 -30 -46 -11 -35 -10 -41 6 -53 18
-13 18 -14 -2 -20 -21 -7 -34 -44 -48 -130 -2 -16 -16 -46 -30 -67 -29 -45
-35 -126 -10 -135 24 -10 18 -19 -30 -42 -48 -23 -49 -26 -36 -84 7 -31 5 -42
-15 -72 -13 -19 -24 -45 -24 -58 0 -13 -9 -38 -20 -56 -25 -41 -25 -69 0 -77
11 -3 20 -10 20 -15 0 -11 -26 -37 -57 -57 -18 -12 -23 -22 -18 -40 3 -13 -1
-33 -9 -46 -8 -12 -30 -76 -49 -142 -34 -116 -40 -141 -52 -214 -3 -19 -10
-41 -14 -50 -13 -24 -57 -62 -73 -65 -8 -1 -40 -24 -71 -51 -47 -40 -60 -60
-77 -111 -11 -33 -32 -72 -45 -84 -48 -45 -24 -64 73 -58 l57 3 3 -62 c3 -64
-18 -164 -45 -217 -9 -17 -16 -43 -15 -58 0 -18 -6 -29 -18 -33 -16 -5 -50
-88 -50 -123 0 -5 -8 -20 -19 -33 -10 -13 -40 -62 -65 -109 -40 -72 -47 -91
-42 -125 3 -22 5 -41 5 -41 1 -1 14 -7 29 -13 64 -27 79 -5 177 249 20 52 46
103 58 113 12 10 23 28 24 40 3 25 50 205 60 227 3 8 6 23 7 33 1 10 12 23 25
30 19 9 29 28 42 77 25 99 25 99 77 102 51 3 64 20 30 40 -29 16 -31 38 -12
106 15 52 17 53 94 92 43 22 81 44 84 49 3 5 23 12 43 16 21 3 63 24 94 46 31
21 74 41 95 45 22 3 107 25 189 49 159 46 182 51 286 59 59 5 68 4 87 -17 11
-12 25 -42 31 -67 6 -25 28 -79 51 -120 22 -41 55 -103 72 -138 30 -58 36 -64
76 -74 44 -11 65 -37 54 -66 -3 -10 -10 -8 -26 7 -12 12 -25 21 -29 21 -15 0
-5 -33 20 -67 l27 -35 82 7 c72 6 82 4 88 -11 8 -21 -4 -34 -33 -37 -30 -2
-31 -66 0 -74 12 -4 18 -11 15 -20 -8 -21 12 -53 32 -53 10 0 37 -9 60 -20 28
-14 61 -20 104 -20 l63 0 16 39 c14 32 15 43 4 58 -7 10 -31 54 -54 98 -24 44
-53 90 -67 102 -13 12 -24 29 -24 37 0 8 -16 45 -36 82 -19 36 -49 101 -65
143 -63 160 -103 240 -124 243 -27 4 -45 97 -21 110 24 13 19 37 -8 44 -19 4
-26 15 -31 44 -4 21 -16 46 -27 57 -63 57 -100 114 -123 195 -26 90 -42 129
-127 308 -30 63 -65 150 -78 193 -14 47 -28 77 -36 77 -8 0 -14 11 -14 24 0
14 -11 33 -25 44 -24 19 -62 105 -145 325 l-33 88 21 77 c11 42 24 98 27 125
5 33 17 58 39 83 24 27 33 47 35 78 1 36 -2 43 -28 59 -16 9 -33 16 -38 16 -4
-1 -17 -4 -28 -6z m-149 -973 c7 -30 16 -45 27 -45 26 0 30 -13 7 -20 -14 -4
-19 -12 -16 -22 3 -8 9 -26 12 -39 4 -14 15 -29 25 -35 15 -8 24 -5 44 17 33
36 42 24 22 -28 l-17 -42 39 -100 c21 -56 42 -120 46 -144 4 -24 13 -46 21
-49 8 -3 14 -10 14 -16 0 -6 7 -18 16 -28 8 -9 28 -50 44 -91 26 -65 32 -73
55 -71 27 2 34 -11 10 -21 -9 -3 -15 -18 -15 -34 0 -16 -6 -34 -12 -40 -15
-12 -141 -44 -243 -62 -38 -7 -74 -16 -80 -20 -5 -4 -39 -16 -75 -25 -36 -10
-101 -36 -145 -59 -64 -34 -89 -42 -124 -40 -55 3 -83 36 -42 49 15 5 21 19
26 63 3 31 11 66 17 77 6 11 13 39 15 63 1 24 14 62 27 85 13 23 29 67 36 97
20 90 88 280 127 355 20 39 41 97 47 130 9 50 15 60 36 65 14 4 24 11 23 16
-1 5 -5 22 -9 38 -6 24 -4 27 12 24 13 -2 22 -17 30 -48z m308 -236 c9 -3 16
-17 16 -31 0 -22 4 -25 25 -21 27 6 35 -9 10 -18 -23 -9 -18 -32 10 -50 24
-16 25 -18 9 -35 -21 -23 -11 -49 18 -49 18 0 20 -2 9 -9 -13 -8 -12 -16 4
-53 10 -24 31 -59 46 -80 16 -20 31 -51 34 -70 7 -40 41 -112 61 -128 12 -11
8 -15 -21 -31 -33 -18 -37 -18 -60 -3 -29 19 -29 19 -15 44 8 15 3 34 -24 88
-45 90 -84 186 -92 229 -4 21 -17 42 -36 56 -21 16 -28 29 -26 48 1 16 -7 37
-25 58 -28 34 -32 43 -20 54 8 9 56 9 77 1z m275 -694 c26 -14 100 -141 115
-197 7 -26 20 -61 28 -78 8 -16 15 -45 17 -64 1 -22 11 -44 29 -61 47 -45 102
-118 102 -134 0 -28 -49 -20 -60 10 -21 53 -142 244 -173 271 -23 20 -31 35
-29 53 2 14 -11 56 -28 92 -27 61 -39 118 -24 118 3 0 13 -4 23 -10z m365
-696 c8 -20 -2 -54 -14 -54 -18 0 -40 13 -40 23 0 12 30 47 40 47 5 0 11 -7
14 -16z"/>
<path d="M14365 7879 c-31 -9 -125 -103 -125 -126 0 -7 -9 -17 -19 -23 -28
-14 -75 -115 -113 -240 -5 -19 -19 -44 -30 -54 -22 -21 -57 -92 -58 -117 0 -8
-12 -26 -26 -40 -14 -13 -44 -52 -66 -86 -23 -35 -44 -63 -48 -63 -4 0 -22
-14 -40 -30 l-33 -30 5 82 c3 46 2 93 -3 105 -5 15 -2 40 10 75 10 29 15 62
11 72 -4 11 1 40 11 66 14 38 15 50 5 75 -7 17 -11 39 -8 50 2 11 5 40 6 65 1
25 5 54 9 66 9 27 -6 39 -56 47 -46 7 -77 -9 -77 -39 0 -24 -29 -54 -53 -54
-10 0 -17 -8 -17 -19 0 -10 -10 -31 -22 -46 -16 -21 -24 -51 -31 -124 -15
-136 -13 -326 3 -336 6 -4 4 -20 -6 -45 -9 -22 -14 -47 -10 -55 3 -9 -1 -47
-9 -85 -13 -60 -13 -75 0 -117 20 -64 19 -92 -5 -131 -24 -39 -27 -100 -4
-109 8 -3 25 4 37 16 13 11 37 26 54 32 18 6 49 31 69 56 20 25 50 59 66 76
15 17 28 35 28 39 0 5 11 13 24 19 25 12 76 94 76 123 0 8 14 31 30 49 17 19
30 44 30 56 0 31 47 101 68 101 36 1 82 60 82 106 0 14 8 38 19 52 29 41 97
173 110 214 7 20 23 44 37 52 13 9 24 22 24 30 0 7 24 28 52 46 61 40 88 40
161 3 39 -19 57 -23 93 -17 33 5 44 11 44 24 0 14 -146 142 -199 174 -26 16
-75 23 -106 15z"/>
<path d="M15230 7858 c-6 -18 -20 -51 -30 -73 -11 -22 -28 -61 -39 -87 -11
-27 -24 -48 -30 -48 -5 0 -8 -10 -6 -21 3 -12 6 -46 7 -75 2 -30 6 -54 10 -54
5 0 8 7 8 15 0 8 5 15 10 15 6 0 10 6 10 14 0 8 3 16 8 18 12 5 40 62 37 78
-15 85 -15 87 10 108 21 19 25 31 25 82 0 33 -2 60 -4 60 -2 0 -9 -15 -16 -32z"/>
<path d="M15483 7710 c-39 -35 -29 -47 15 -20 21 13 30 25 26 35 -7 18 -3 20
-41 -15z"/>
<path d="M11645 7515 c-20 -36 -42 -65 -49 -65 -7 0 -27 -20 -45 -45 -17 -24
-44 -53 -60 -64 -35 -25 -48 -67 -28 -90 31 -34 50 -131 43 -221 -7 -103 -12
-130 -26 -144 -17 -17 -12 -66 8 -73 17 -7 32 -22 32 -35 0 -4 -13 -14 -30
-23 -26 -13 -30 -21 -30 -57 0 -25 -6 -45 -16 -52 -12 -9 -13 -17 -5 -38 8
-22 5 -31 -19 -59 -22 -26 -29 -44 -30 -76 0 -24 5 -43 10 -43 33 0 131 37
135 51 3 9 24 24 46 35 23 10 55 31 71 46 17 15 36 28 44 28 28 0 111 66 142
113 21 30 39 47 53 47 25 0 101 60 95 75 -7 19 6 32 69 73 65 42 193 146 265
216 25 24 55 47 68 51 19 5 25 1 38 -31 9 -21 18 -61 21 -89 3 -27 13 -63 22
-80 14 -26 15 -37 5 -80 -25 -103 -16 -205 19 -220 12 -6 23 -20 25 -32 5 -34
48 -30 140 15 101 50 372 267 372 298 0 8 7 15 15 15 8 1 19 2 24 3 8 1 121
105 292 269 16 15 29 36 29 47 0 10 3 25 6 33 3 10 -5 18 -27 26 -31 11 -35 9
-68 -22 -20 -18 -61 -53 -91 -78 -30 -24 -57 -46 -60 -49 -3 -3 -72 -60 -155
-126 -159 -127 -169 -131 -222 -93 -21 15 -23 24 -25 155 -2 126 8 298 18 316
3 4 -7 30 -21 58 -19 38 -31 50 -48 50 -13 0 -27 4 -33 10 -14 14 -101 -49
-113 -82 -6 -16 -15 -28 -21 -28 -6 0 -16 -11 -22 -25 -6 -14 -17 -25 -24 -25
-7 0 -35 -23 -61 -52 -26 -28 -81 -76 -122 -106 -200 -149 -441 -364 -441
-394 0 -5 -22 -19 -48 -31 -26 -12 -61 -33 -77 -46 l-30 -23 -3 44 c-2 31 8
78 33 151 19 58 35 121 35 140 0 19 6 52 14 74 8 22 17 90 21 152 4 62 13 129
22 148 20 50 4 86 -48 107 -75 30 -93 24 -134 -49z"/>
<path d="M6281 7479 c-112 -120 -159 -188 -164 -238 -4 -48 -103 -193 -147
-216 -21 -11 -30 -26 -40 -72 -8 -32 -13 -68 -12 -79 2 -14 -10 -33 -34 -53
-20 -18 -48 -60 -66 -98 -16 -36 -42 -82 -58 -102 -16 -20 -52 -85 -81 -145
-39 -79 -60 -111 -78 -118 -30 -11 -51 -4 -51 18 0 8 -16 44 -36 80 -19 35
-37 77 -39 93 -2 17 -8 38 -13 48 -5 10 -13 36 -17 58 -10 58 -59 203 -84 253
-15 29 -33 48 -54 57 -75 30 -65 37 -196 -120 -67 -79 -160 -179 -207 -221
-66 -60 -84 -83 -84 -104 0 -22 6 -29 33 -37 31 -10 34 -8 102 58 49 47 79 68
100 71 28 3 30 0 36 -37 3 -22 15 -56 27 -75 12 -19 22 -43 22 -53 0 -25 61
-126 80 -133 32 -12 109 -117 125 -170 28 -95 29 -114 11 -114 -22 0 -29 -21
-17 -53 13 -33 47 -33 56 2 7 27 82 100 104 101 8 0 35 20 61 44 25 24 65 54
88 67 30 17 45 34 53 59 6 19 22 46 35 60 27 30 159 248 169 281 4 13 15 35
25 49 18 27 50 108 50 128 0 7 17 30 38 51 33 34 38 44 34 76 -4 31 1 42 31
73 45 48 172 300 189 376 12 53 18 63 63 96 28 21 58 47 68 58 18 19 18 22 2
46 -10 14 -22 26 -29 26 -6 -1 -49 -41 -95 -91z"/>
<path d="M15576 7499 c-43 -10 -76 -34 -76 -56 0 -7 -3 -13 -7 -13 -5 0 -21
-11 -37 -25 l-29 -25 128 0 c98 0 126 3 122 13 -21 52 -53 117 -57 116 -3 -1
-23 -5 -44 -10z"/>
<path d="M7144 7416 c-16 -22 -42 -65 -60 -94 l-32 -53 5 -120 c6 -113 5 -121
-16 -143 -19 -20 -21 -31 -16 -72 6 -46 4 -54 -36 -114 -96 -149 -167 -206
-183 -147 -4 16 1 27 17 41 20 17 22 27 22 126 0 86 3 111 17 126 9 11 21 37
27 59 6 22 18 49 26 59 8 11 15 26 15 34 0 8 18 51 41 97 31 62 42 99 46 147
l6 65 -29 6 c-30 6 -26 10 -125 -100 -16 -17 -29 -37 -29 -45 0 -7 -9 -19 -19
-25 -35 -22 -121 -177 -132 -239 -11 -62 -56 -193 -70 -208 -5 -6 -9 -29 -9
-52 0 -23 -7 -61 -16 -85 -9 -24 -16 -69 -15 -99 1 -30 -3 -80 -8 -110 -7 -44
-6 -61 7 -85 9 -16 17 -48 19 -70 7 -104 17 -152 33 -172 10 -13 23 -45 30
-72 11 -46 15 -51 72 -81 l61 -33 96 22 c53 11 106 22 118 24 11 2 38 15 60
29 21 14 53 29 71 33 26 5 32 11 27 25 -3 10 -3 29 0 43 6 20 16 26 62 36 31
6 72 23 92 37 51 37 121 116 121 136 0 10 25 35 58 57 59 40 161 141 225 222
34 42 36 47 25 81 -10 34 -12 35 -39 26 -25 -9 -143 -140 -155 -173 -3 -6 -35
-33 -71 -60 -37 -28 -95 -77 -128 -111 -70 -71 -110 -100 -151 -110 -16 -4
-40 -15 -53 -26 -13 -10 -30 -18 -37 -18 -7 0 -22 -13 -33 -29 -33 -46 -134
-59 -175 -23 -38 35 -93 169 -76 186 5 5 10 28 10 49 0 48 44 103 103 129 21
10 70 45 109 78 38 33 73 60 79 60 15 0 89 71 104 100 11 22 26 30 74 40 34 7
61 18 61 24 0 7 29 28 65 49 35 20 69 47 76 58 12 23 65 72 113 105 30 21 93
120 83 130 -3 3 -21 2 -41 -1 -35 -7 -183 -104 -198 -130 -5 -7 -29 -25 -55
-41 -27 -15 -63 -41 -82 -57 -19 -16 -50 -36 -69 -44 -20 -8 -56 -32 -81 -52
-44 -37 -81 -57 -81 -44 0 20 95 194 119 217 24 23 31 40 36 90 4 33 13 68 21
77 11 13 12 22 3 49 -11 30 -10 35 10 51 19 15 22 25 17 56 -3 21 -5 43 -6 49
0 13 -41 32 -94 44 -33 7 -36 6 -62 -34z"/>
<path d="M8107 7173 c-77 -126 -158 -343 -141 -381 7 -15 14 -128 14 -227 0
-22 7 -59 16 -82 16 -40 16 -45 0 -61 -9 -10 -16 -28 -16 -39 0 -11 -7 -35
-16 -53 -14 -26 -15 -51 -10 -134 3 -55 6 -109 6 -118 0 -9 7 -24 16 -32 14
-14 22 -11 92 41 130 95 293 231 440 366 53 48 107 90 121 94 14 3 44 18 66
33 83 56 81 56 140 15 l53 -36 13 -86 c10 -68 16 -87 31 -91 12 -3 18 -14 18
-31 0 -18 12 -39 35 -61 l36 -35 66 35 c42 22 73 47 85 68 15 25 27 32 51 33
57 2 76 13 219 129 77 63 161 126 187 140 35 20 55 41 88 97 l42 73 -30 16
c-30 15 -32 15 -68 -13 -20 -16 -67 -46 -106 -67 -38 -21 -85 -51 -102 -67
-18 -15 -51 -33 -73 -39 -23 -6 -53 -24 -69 -40 -15 -17 -33 -30 -39 -30 -24
0 -101 131 -122 209 -5 20 -28 61 -50 91 -22 30 -45 71 -50 91 -8 28 -17 39
-37 44 -24 6 -37 -5 -137 -110 -61 -63 -118 -115 -127 -115 -32 0 -230 -139
-349 -246 -67 -60 -125 -110 -130 -112 -4 -2 -17 12 -29 31 -17 27 -21 50 -21
111 0 53 -5 84 -16 101 -12 18 -14 35 -7 72 10 63 8 75 -22 123 -32 50 -31 70
1 101 21 20 25 30 21 69 -5 63 -38 160 -54 160 -7 0 -23 -17 -36 -37z"/>
<path d="M16119 6472 c-9 -4 -39 -28 -66 -53 -44 -42 -49 -50 -45 -82 3 -25
-2 -45 -16 -64 -11 -17 -22 -53 -25 -88 -4 -33 -9 -75 -13 -93 -5 -24 -2 -38
11 -52 17 -19 17 -22 0 -60 -10 -22 -21 -40 -24 -40 -3 0 -12 -4 -19 -8 -10
-7 -6 -26 17 -90 l30 -81 -29 -24 -29 -24 28 -34 28 -33 -19 -60 c-10 -33 -25
-64 -33 -69 -11 -6 -14 -30 -13 -105 1 -72 -3 -107 -16 -135 -14 -31 -15 -45
-5 -80 6 -23 18 -50 26 -59 15 -16 15 -20 0 -36 -14 -15 -14 -24 -3 -67 11
-44 11 -56 -6 -104 -16 -48 -16 -57 -3 -77 13 -20 12 -27 -17 -79 -17 -31 -32
-72 -34 -91 -2 -19 -6 -50 -8 -69 -2 -19 -1 -35 3 -35 3 0 12 -4 19 -9 11 -7
10 -22 -8 -85 -16 -56 -18 -81 -11 -90 7 -9 9 -32 4 -67 -8 -52 -9 -54 -41
-57 -28 -3 -33 -7 -30 -25 2 -14 11 -23 24 -25 29 -4 52 -81 35 -118 -6 -14
-11 -34 -11 -44 0 -11 -4 -20 -9 -20 -5 0 -16 -20 -24 -45 -14 -41 -14 -49 -1
-82 16 -38 12 -123 -7 -123 -11 0 -11 -47 0 -75 5 -12 2 -37 -6 -61 -12 -35
-12 -45 2 -77 8 -20 17 -37 19 -37 2 0 24 9 49 20 28 12 56 18 73 14 27 -5 31
-1 63 57 19 34 41 64 50 66 9 2 24 16 35 30 18 25 18 25 -5 49 -21 20 -29 22
-62 15 -25 -6 -39 -5 -44 2 -6 10 -5 91 2 222 1 22 7 60 13 85 6 26 7 62 3 86
-7 35 -4 45 16 69 17 19 23 35 19 49 -16 55 -17 192 -2 240 14 47 14 50 -9 80
l-24 31 32 21 c32 21 33 23 35 100 1 44 -2 104 -7 134 -8 51 -7 57 17 89 l26
35 -23 64 c-20 58 -21 66 -7 81 9 10 13 26 10 38 -4 14 2 34 17 55 22 31 24
43 26 181 0 81 5 153 10 160 14 17 37 152 38 222 1 43 8 71 24 97 20 33 21 39
7 44 -30 12 -30 44 2 78 25 26 31 41 35 96 3 36 10 77 15 91 8 20 7 27 -8 37
-14 9 -17 20 -13 62 6 68 -21 140 -51 139 -11 0 -28 -3 -37 -7z"/>
<path d="M14733 5568 c-12 -13 -32 -46 -44 -73 -12 -28 -28 -55 -36 -60 -12
-9 -73 -137 -88 -186 -4 -12 13 -29 62 -59 67 -43 68 -43 158 -42 132 1 152 7
209 60 28 25 53 49 56 53 3 4 20 10 37 14 18 3 35 11 38 16 10 16 -44 56 -113
85 -37 15 -72 33 -78 40 -6 7 -17 39 -24 70 -13 53 -16 57 -59 76 -74 31 -93
32 -118 6z"/>
<path d="M11086 5403 c-4 -5 -65 -9 -134 -9 -158 -2 -344 -10 -397 -17 -22 -3
-78 -9 -125 -12 -120 -8 -158 -15 -208 -36 -24 -11 -60 -19 -80 -19 -38 0
-428 -85 -542 -118 -46 -13 -68 -25 -75 -40 -6 -14 -26 -27 -55 -35 -25 -7
-106 -54 -181 -104 -116 -78 -136 -96 -146 -126 -15 -49 -2 -58 92 -64 95 -6
123 1 136 33 7 20 14 25 30 21 12 -3 36 2 55 10 25 12 39 14 56 6 18 -8 37 -5
91 16 60 23 67 29 67 53 0 40 10 58 33 58 11 0 52 19 91 43 60 36 79 42 131
44 33 1 68 3 79 5 13 2 29 -12 52 -45 l33 -48 -19 -32 c-19 -32 -19 -34 0 -97
11 -36 20 -75 20 -88 0 -13 5 -33 12 -45 16 -29 19 -174 6 -264 -9 -62 -8 -76
6 -97 13 -21 14 -34 6 -78 -6 -29 -10 -66 -9 -83 1 -16 -4 -62 -11 -102 -11
-58 -11 -75 0 -87 9 -12 12 -80 11 -278 -1 -145 -4 -280 -8 -301 -5 -32 -2
-42 22 -67 l27 -28 -21 -47 -21 -46 22 -30 c37 -50 73 -30 83 46 3 27 11 55
17 62 6 8 8 39 4 85 -7 69 -6 72 20 93 24 19 26 25 17 51 -8 23 -7 35 2 48 10
13 13 65 11 203 -1 103 3 237 10 297 6 61 14 140 18 176 3 36 8 83 11 105 5
44 11 157 21 370 3 77 8 151 10 165 2 14 7 63 10 110 10 122 10 122 99 114 71
-6 75 -5 112 23 35 28 40 29 68 17 17 -6 33 -10 37 -8 4 3 66 7 138 9 89 4
141 10 161 20 23 12 37 13 71 5 27 -7 52 -8 67 -2 14 5 41 5 67 -1 39 -9 49
-7 102 21 32 17 73 34 92 37 19 3 42 13 50 21 13 12 11 18 -16 45 -28 28 -33
29 -72 21 -27 -6 -42 -6 -42 0 0 5 -3 7 -8 4 -4 -2 -28 -1 -52 4 -88 15 -147
20 -154 13z"/>
<path d="M17320 5344 c-18 -8 -38 -14 -46 -14 -18 0 -93 -52 -94 -66 0 -5 -11
-25 -25 -44 -14 -19 -25 -43 -25 -54 0 -11 -12 -33 -27 -49 -27 -27 -28 -32
-30 -150 -1 -67 -8 -148 -16 -179 -12 -49 -12 -60 -1 -69 19 -15 18 -41 -3
-100 l-18 -50 28 -54 29 -54 -16 -72 c-9 -39 -14 -74 -11 -77 3 -3 -1 -15 -9
-27 -13 -20 -13 -30 1 -81 20 -76 24 -162 11 -246 -6 -45 -6 -78 1 -104 14
-50 0 -67 -48 -60 -20 3 -47 5 -60 6 -15 0 -39 17 -67 48 -24 26 -44 44 -44
39 0 -10 -55 19 -113 60 -28 20 -69 38 -99 43 -49 10 -53 9 -81 -17 -45 -43
-148 -181 -139 -187 5 -3 34 -6 66 -7 50 -2 59 -6 67 -26 5 -14 14 -21 23 -17
19 7 93 -31 106 -56 13 -25 33 -16 25 10 -5 16 1 20 38 25 25 4 53 5 63 3 23
-4 42 -73 26 -98 -18 -29 34 -70 110 -86 65 -14 77 -10 91 30 8 22 42 -10 47
-45 5 -31 8 -35 44 -37 l38 -4 -7 43 c-8 45 -5 46 46 25 12 -5 23 3 38 27 12
19 30 37 41 40 11 3 27 20 34 39 14 31 13 35 -10 59 -21 22 -22 27 -11 44 12
15 11 32 -8 114 -13 57 -21 122 -19 161 1 36 -4 88 -12 115 -7 28 -13 71 -14
97 0 26 -9 72 -21 102 -19 51 -19 57 -4 85 13 25 14 60 11 207 -4 153 -2 188
15 258 23 89 45 121 91 130 57 11 91 -52 52 -95 -23 -25 -10 -59 24 -59 32 0
77 31 120 82 25 32 32 49 32 85 0 24 7 58 16 74 13 26 14 39 4 78 -6 26 -20
62 -30 79 -40 65 -161 105 -230 76z"/>
<path d="M13363 4852 c-43 -14 -221 -193 -268 -271 -5 -9 -26 -41 -47 -73 -46
-68 -98 -176 -98 -202 0 -11 -10 -31 -23 -45 -33 -36 -107 -230 -107 -279 0
-27 -11 -59 -34 -100 -19 -33 -41 -89 -49 -124 -9 -34 -41 -164 -71 -288 -52
-209 -55 -226 -40 -248 10 -16 21 -21 32 -17 9 3 29 9 45 12 15 3 27 12 27 19
0 8 17 25 38 39 21 14 54 46 73 71 20 27 54 56 81 70 30 15 54 36 64 57 9 17
31 48 48 68 67 78 94 117 139 193 30 51 80 114 143 178 53 54 100 98 103 98
17 0 83 -80 78 -93 -3 -8 1 -24 10 -36 8 -12 14 -36 12 -54 -6 -91 0 -111 43
-140 l40 -28 -26 -28 -27 -28 39 -34 c21 -19 48 -50 60 -70 32 -54 84 -66 182
-43 133 30 201 72 372 235 84 80 172 163 196 183 23 21 63 71 88 112 25 40 54
76 65 79 40 13 168 260 146 282 -7 6 -100 -86 -224 -222 -50 -55 -102 -112
-115 -126 -13 -14 -41 -47 -62 -72 -21 -26 -71 -71 -110 -99 -39 -28 -94 -71
-122 -95 -45 -38 -57 -43 -100 -43 -70 0 -129 35 -129 75 0 19 -22 66 -57 125
-45 75 -54 98 -46 113 9 18 13 310 6 411 -4 40 -10 53 -34 72 -16 13 -38 24
-49 24 -22 -1 -126 -129 -216 -265 -29 -44 -69 -100 -88 -124 -20 -24 -70 -90
-111 -147 -161 -221 -322 -422 -365 -456 -17 -13 -25 -14 -33 -6 -16 16 -15
32 4 103 9 33 18 76 21 95 2 19 13 47 24 62 12 17 19 44 19 72 0 25 9 69 20
98 11 29 24 84 29 121 8 53 16 75 40 103 17 19 31 45 31 59 0 39 19 78 59 120
21 22 43 54 48 70 12 37 127 158 154 162 19 3 36 -33 26 -59 -7 -21 12 -48 34
-48 30 0 34 27 8 49 -32 26 -18 37 29 23 34 -11 40 -10 77 16 32 23 41 36 48
72 12 67 2 135 -28 185 -23 41 -29 45 -63 44 -20 -1 -47 -4 -59 -7z"/>
<path d="M14880 4775 c-8 -10 -31 -15 -62 -15 -41 0 -75 -13 -206 -76 -182
-89 -237 -125 -262 -174 -27 -53 -13 -71 42 -58 32 8 61 29 113 78 55 52 82
71 127 85 71 22 87 16 168 -57 l63 -58 -10 -57 c-9 -48 -8 -63 5 -84 12 -22
13 -33 3 -59 -10 -30 -8 -37 14 -66 l26 -34 -20 -63 c-15 -48 -19 -93 -19
-188 -1 -183 -6 -233 -32 -269 -21 -30 -22 -31 -4 -79 14 -39 23 -50 51 -60
19 -7 36 -11 37 -9 2 1 17 59 35 128 34 134 38 179 19 198 -9 9 -3 22 30 55
29 30 41 49 36 60 -3 9 -10 17 -14 17 -15 0 -29 57 -17 69 7 7 12 67 12 169 2
144 0 159 -18 179 -19 22 -20 24 -3 61 13 30 15 44 6 66 -5 15 -7 32 -4 38 12
20 6 180 -8 193 -21 21 -94 27 -108 10z"/>
<path d="M12343 4510 c-13 -5 -31 -22 -40 -38 -10 -15 -26 -37 -36 -47 -67
-75 -103 -133 -118 -190 -18 -66 -47 -137 -66 -158 -27 -29 -53 -81 -53 -107
0 -11 -11 -30 -25 -42 -14 -12 -46 -54 -72 -95 -27 -40 -53 -73 -59 -73 -6 0
-19 -9 -29 -20 -10 -11 -22 -20 -26 -20 -12 0 -4 240 9 271 6 15 8 36 5 48 -3
11 2 41 11 67 13 39 14 53 4 81 -9 25 -9 41 -1 62 6 18 7 34 1 45 -6 11 -5 29
2 52 15 45 3 59 -57 67 -32 4 -46 1 -58 -13 -9 -10 -15 -21 -13 -26 5 -18 -23
-53 -44 -56 -14 -2 -24 -13 -29 -32 -4 -15 -16 -37 -25 -48 -13 -14 -19 -39
-21 -91 -1 -40 -7 -94 -14 -120 -7 -30 -8 -66 -3 -95 4 -26 9 -65 10 -87 2
-22 4 -49 4 -60 2 -22 -16 -150 -29 -205 -5 -23 -2 -53 7 -85 17 -60 16 -102
-2 -130 -22 -33 -26 -93 -9 -111 14 -14 18 -13 42 10 15 14 41 30 58 36 17 6
42 28 56 48 14 20 59 72 100 115 57 59 80 91 97 138 13 33 31 66 42 72 10 7
18 21 18 31 0 39 41 106 68 112 50 12 79 52 88 118 2 16 14 43 27 60 13 17 29
47 37 66 7 19 19 42 26 50 7 8 20 35 29 60 10 25 28 55 41 67 13 12 24 28 25
35 0 20 98 78 130 78 16 0 55 -13 87 -29 43 -21 64 -26 84 -21 15 5 30 5 33 2
6 -6 25 16 25 29 0 11 -198 169 -225 179 -32 12 -82 12 -112 0z"/>
<path d="M16452 4387 c-34 -35 -42 -80 -19 -109 24 -30 45 -28 86 9 35 30 41
41 41 74 0 42 -2 44 -45 53 -26 6 -36 1 -63 -27z"/>
<path d="M16334 4209 c-15 -30 -15 -33 4 -51 22 -22 42 -19 81 11 23 17 23 19
6 44 -25 39 -69 37 -91 -4z"/>
<path d="M16233 4082 c-28 -26 -56 -62 -62 -81 -6 -18 -29 -62 -51 -98 -41
-64 -41 -64 -23 -93 l17 -30 69 67 c94 93 131 147 122 181 -5 20 -1 30 14 42
20 14 20 17 6 38 -9 12 -22 22 -28 22 -7 0 -35 -22 -64 -48z"/>
<path d="M14851 3497 c-6 -8 -13 -44 -15 -80 -4 -73 -4 -74 60 -61 42 8 72 71
55 113 -17 39 -76 56 -100 28z"/>
</g>
</svg>
